<svg xmlns="http://www.w3.org/2000/svg" viewBox="0 0 128 128">
  <path
    d="M21 93C5 80 0 66 0 49 0 22 21 3 48 3c10 0 20 3 30 13 10-10 20-13 31-13 28 0 49 19 49 46 0 18-6 32-23 46 8-10 12-20 12-32 0-24-18-39-39-39-11 0-20 4-30 16-10-12-19-16-30-16-21 0-39 15-39 39 0 12 4 22 12 30Z"
    fill="none"
    stroke="#ff3138"
    stroke-linecap="round"
    stroke-linejoin="round"
    stroke-width="8"
  />
  <path
    d="M82 30v27h27c7.8 0 14 6.2 14 14v0c0 7.8-6.2 14-14 14H82v27c0 7.8-6.2 14-14 14v0c-7.8 0-14-6.2-14-14V85H27c-7.8 0-14-6.2-14-14v0c0-7.8 6.2-14 14-14h27V30c0-7.8 6.2-14 14-14v0c7.8 0 14 6.2 14 14Z"
    fill="#0b7d45"
  />
</svg>
