<svg xmlns="http://www.w3.org/2000/svg" viewBox="0 0 128 128">
  <path
    d="M64 109c-18.7-10.4-33.2-21.9-43-34C12.8 64.4 9 54.5 9 44.9 9 26.8 22.9 14 39.6 14c11.1 0 18.9 4.5 24.4 12.3C69.5 18.5 77.3 14 88.4 14 105.1 14 119 26.8 119 44.9c0 9.6-3.8 19.5-12 30.1-9.8 12.1-24.3 23.6-43 34Z"
    fill="none"
    stroke="#ff3138"
    stroke-linecap="round"
    stroke-linejoin="round"
    stroke-width="11"
  />
  <path
    d="M69 35v18h18c5.5 0 10 4.5 10 10v0c0 5.5-4.5 10-10 10H69v18c0 5.5-4.5 10-10 10v0c-5.5 0-10-4.5-10-10V73H31c-5.5 0-10-4.5-10-10v0c0-5.5 4.5-10 10-10h18V35c0-5.5 4.5-10 10-10v0c5.5 0 10 4.5 10 10Z"
    fill="#0b7d45"
  />
</svg>
