<svg xmlns="http://www.w3.org/2000/svg" viewBox="0 0 128 128">
  <path
    d="M64 109c-18.7-10.4-33.2-21.9-43-34C12.8 64.4 9 54.5 9 44.9 9 26.8 22.9 14 39.6 14c11.1 0 18.9 4.5 24.4 12.3C69.5 18.5 77.3 14 88.4 14 105.1 14 119 26.8 119 44.9c0 9.6-3.8 19.5-12 30.1-9.8 12.1-24.3 23.6-43 34Z"
    fill="none"
    stroke="#ff3138"
    stroke-linecap="round"
    stroke-linejoin="round"
    stroke-width="11"
  />
  <path
    d="M72 28v24h24c6.6 0 12 5.4 12 12v0c0 6.6-5.4 12-12 12H72v24c0 6.6-5.4 12-12 12v0c-6.6 0-12-5.4-12-12V76H24c-6.6 0-12-5.4-12-12v0c0-6.6 5.4-12 12-12h24V28c0-6.6 5.4-12 12-12v0c6.6 0 12 5.4 12 12Z"
    fill="#0b7d45"
  />
</svg>
