<svg xmlns="http://www.w3.org/2000/svg" viewBox="0 0 64 64">
  <rect width="64" height="64" rx="16" fill="#ffffff" />
  <path
    d="M32 54C19.4 46.8 10 37.8 10 27.8 10 17.8 17.7 11 27 11c6.2 0 10.6 2.5 13 6.7 2.4-4.2 6.8-6.7 13-6.7 9.3 0 17 6.8 17 16.8 0 10-9.4 19-22 26.2Z"
    fill="none"
    stroke="#ff3138"
    stroke-linecap="round"
    stroke-linejoin="round"
    stroke-width="5"
  />
  <path
    d="M35 20v9h9c2.8 0 5 2.2 5 5s-2.2 5-5 5h-9v9c0 2.8-2.2 5-5 5s-5-2.2-5-5v-9h-9c-2.8 0-5-2.2-5-5s2.2-5 5-5h9v-9c0-2.8 2.2-5 5-5s5 2.2 5 5Z"
    fill="#0b7d45"
  />
</svg>
