<svg xmlns="http://www.w3.org/2000/svg" viewBox="0 0 64 64">
  <rect width="64" height="64" rx="16" fill="#ffffff" />
  <path
    d="M14 46.5C6.7 40.4 4.5 34 4.5 26.2 4.5 14.4 13.6 6 25.3 6c4.4 0 8.4 1.2 13.6 5.9C44 7.2 48 6 52.6 6 64.7 6 73.5 14.5 73.5 26.1c0 8.1-2.5 14.1-9.8 20-2.9 2.4-6.4 4.6-10.6 6.8"
    fill="none"
    stroke="#ff3138"
    stroke-linecap="round"
    stroke-linejoin="round"
    stroke-width="4.5"
    transform="translate(-7 0)"
  />
  <path
    d="M35 16v12h12c3.4 0 6 2.6 6 6s-2.6 6-6 6H35v12c0 3.4-2.6 6-6 6s-6-2.6-6-6V40H11c-3.4 0-6-2.6-6-6s2.6-6 6-6h12V16c0-3.4 2.6-6 6-6s6 2.6 6 6Z"
    fill="#0b7d45"
  />
</svg>
