<svg xmlns="http://www.w3.org/2000/svg" viewBox="0 0 64 64">
  <rect width="64" height="64" rx="16" fill="#ffffff" />
  <path
    d="M12 47C4 40.4 2 33.4 2 24.8 2 11.8 12.2 2.5 25.2 2.5c4.8 0 9.3 1.4 14.8 6.8 5.4-5.4 9.9-6.8 15-6.8 13.5 0 23 9.3 23 22.3 0 9-2.7 15.7-10.7 22.2 3.5-4.6 5.2-8.8 5.2-14 0-11.2-8.6-18.6-18.6-18.6-5.2 0-9.7 1.9-14 7.3-4.4-5.4-8.8-7.3-14.1-7.3-10 0-18.6 7.4-18.6 18.6 0 5.2 1.7 9.4 5.2 14Z"
    fill="none"
    stroke="#ff3138"
    stroke-linecap="round"
    stroke-linejoin="round"
    stroke-width="3.8"
  />
  <path
    d="M39.5 16v13h13c3.7 0 6.5 2.8 6.5 6.5s-2.8 6.5-6.5 6.5h-13v13c0 3.7-2.8 6.5-6.5 6.5s-6.5-2.8-6.5-6.5V42H13.5C9.8 42 7 39.2 7 35.5S9.8 29 13.5 29h13V16c0-3.7 2.8-6.5 6.5-6.5s6.5 2.8 6.5 6.5Z"
    fill="#0b7d45"
  />
</svg>
